<svg width="201" height="36" viewBox="0 0 201 36" fill="none" xmlns="http://www.w3.org/2000/svg"><path d="M48.3616 23.9332L49.2696 22.5978C49.8552 21.7382 50.5294 21.6784 51.4964 22.214C52.1706 22.5702 53.4894 23.5195 55.3077 23.5195C56.8308 23.5195 57.5322 22.8667 57.5322 22.0347C57.5322 19.0375 48.2731 19.5132 48.2731 12.866C48.2731 8.94939 51.4964 6.36819 55.748 6.36819C58.1792 6.36819 60.406 7.22782 61.4025 7.94035C62.2514 8.56324 62.34 9.30566 61.8996 10.1653L61.1982 11.5605C60.6103 12.7166 59.8181 12.5396 58.9986 12.1236C58.0339 11.6501 57.0646 11.1444 55.6868 11.1444C54.0774 11.1444 53.4009 11.7972 53.4009 12.6293C53.4009 15.7138 62.6623 14.9714 62.6623 21.6784C62.6623 25.2411 60.0246 28.2981 55.3077 28.2981C52.3772 28.2981 49.7667 27.0799 48.6544 26.1904C48.0393 25.6847 47.5989 25.0319 48.3616 23.9332Z" fill="white"/><path d="M65.132 8.35638C65.132 7.28758 65.6882 6.72215 66.7437 6.72215H68.6482C69.7037 6.72215 70.2598 7.28758 70.2598 8.35638V20.1361C70.2598 22.3611 71.6967 23.5471 73.894 23.5471C76.0914 23.5471 77.5282 22.3611 77.5282 20.1361V8.35638C77.5282 7.28758 78.0844 6.72215 79.1399 6.72215H81.0444C82.0999 6.72215 82.656 7.28758 82.656 8.35638V20.1361C82.656 24.9124 79.1989 28.2958 73.9235 28.2958C68.5892 28.2958 65.132 24.9124 65.132 20.1361V8.35638Z" fill="white"/><path d="M93.7357 16.339C95.3791 16.339 96.4028 15.4173 96.4028 13.7257C96.4028 12.6592 96.1395 11.857 95.1725 11.4708C94.7027 11.264 94.0875 11.1743 93.2385 11.1743H91.5088V16.339H93.7357ZM86.381 8.35408C86.381 7.28758 86.9372 6.72445 87.9927 6.72445H93.6766C95.8172 6.72445 96.8432 6.87156 97.7512 7.22782C100.126 8.14722 101.619 10.3124 101.619 13.3993C101.619 15.6564 100.566 18.1181 98.4844 19.1869V19.2443C98.4844 19.2443 98.7772 19.6305 99.2766 20.5223L102.264 25.9812C102.911 27.1098 102.411 27.9395 101.152 27.9395H98.9248C98.044 27.9395 97.4584 27.5855 97.0203 26.7834L93.9127 20.7889H91.5088V26.3076C91.5088 27.3764 90.9527 27.9395 89.8995 27.9395H87.9927C86.9372 27.9395 86.381 27.3764 86.381 26.3076V8.35408Z" fill="white"/><path d="M114.56 6.36819C117.902 6.36819 120.507 7.61397 121.359 8.23686C122.237 8.88963 122.326 9.57228 121.77 10.4917L121.007 11.7099C120.451 12.5994 119.747 12.6592 118.78 12.1535C117.813 11.6501 116.699 11.1146 114.883 11.1146C110.69 11.1146 108.844 13.9647 108.844 17.1688C108.844 21.0854 111.6 23.5494 114.794 23.5494C117.784 23.5494 119.102 21.8278 119.102 21.8278V20.3729H117.754C116.698 20.3729 116.142 19.8098 116.142 18.741V17.5848C116.142 16.516 116.698 15.9529 117.754 15.9529H122.033C123.088 15.9529 123.645 16.516 123.645 17.5848V26.3076C123.645 27.3764 123.088 27.9418 122.033 27.9418H121.066C120.01 27.9418 119.454 27.3764 119.454 26.6639V26.6041C119.454 26.4271 119.484 26.3076 119.484 26.3076H119.425C119.425 26.3076 117.579 28.2981 113.857 28.2981C108.465 28.2981 103.542 24.1424 103.542 17.4653C103.542 10.9973 108.143 6.36819 114.56 6.36819Z" fill="white"/><path d="M126.477 8.35526C126.477 7.28876 127.034 6.72563 128.089 6.72563H129.994C131.049 6.72563 131.605 7.28876 131.605 8.35526V23.4908H138.551C139.607 23.4908 140.163 24.0539 140.163 25.1227V26.3088C140.163 27.3776 139.607 27.9407 138.551 27.9407H128.089C127.034 27.9407 126.477 27.3776 126.477 26.3088V8.35526Z" fill="white"/><path d="M151.195 23.5506C154.507 23.5506 156.852 20.8177 156.852 17.1975C156.852 13.7268 154.507 11.1157 151.195 11.1157C147.883 11.1157 145.538 13.7268 145.538 17.1975C145.538 20.8177 147.883 23.5506 151.195 23.5506ZM151.195 6.36707C157.701 6.36707 162.154 11.1157 162.154 17.1975C162.154 23.4311 157.701 28.297 151.195 28.297C144.689 28.297 140.233 23.4311 140.233 17.1975C140.233 11.1157 144.689 6.36707 151.195 6.36707Z" fill="white"/><path d="M174.759 6.36707C178.101 6.36707 180.709 7.61515 181.56 8.23804C182.439 8.89081 182.525 9.57346 181.969 10.4929L181.206 11.7088C180.65 12.6006 179.946 12.658 178.979 12.1547C178.012 11.6513 176.9 11.1157 175.082 11.1157C170.891 11.1157 169.046 13.9659 169.046 17.17C169.046 21.0866 171.799 23.5506 174.993 23.5506C177.983 23.5506 179.301 21.829 179.301 21.829V20.3741H177.955C176.9 20.3741 176.341 19.8109 176.341 18.7421V17.586C176.341 16.5172 176.9 15.9518 177.955 15.9518H182.232C183.287 15.9518 183.844 16.5172 183.844 17.586V26.3088C183.844 27.3776 183.287 27.9407 182.232 27.9407H181.265C180.212 27.9407 179.653 27.3776 179.653 26.665V26.6053C179.653 26.426 179.683 26.3088 179.683 26.3088H179.626C179.626 26.3088 177.778 28.297 174.056 28.297C168.664 28.297 163.741 24.1436 163.741 17.4665C163.741 10.9962 168.342 6.36707 174.759 6.36707Z" fill="white"/><path d="M186.152 23.9344L187.06 22.599C187.646 21.7394 188.32 21.6796 189.287 22.2129C189.961 22.5691 191.28 23.5184 193.098 23.5184C194.621 23.5184 195.323 22.8679 195.323 22.0359C195.323 19.0386 186.064 19.5144 186.064 12.8649C186.064 8.95056 189.287 6.36707 193.536 6.36707C195.97 6.36707 198.197 7.229 199.193 7.94153C200.042 8.56442 200.131 9.30684 199.69 10.1665L198.986 11.5617C198.401 12.7178 197.609 12.5408 196.789 12.1248C195.822 11.6513 194.855 11.1456 193.477 11.1456C191.866 11.1456 191.191 11.7984 191.191 12.6304C191.191 15.715 200.453 14.9726 200.453 21.6796C200.453 25.24 197.815 28.297 193.098 28.297C190.165 28.297 187.557 27.0811 186.445 26.1892C185.828 25.6859 185.389 25.0331 186.152 23.9344Z" fill="white"/><path d="M3.11499 28.9202C1.39465 28.9202 0 27.4903 0 25.7264V3.19374C0 1.42991 1.39465 0 3.11499 0C4.83533 0 6.22998 1.42991 6.22998 3.19374V25.7264C6.22998 27.4903 4.83533 28.9202 3.11499 28.9202Z" fill="white"/><path d="M12.4238 25.192C10.7034 25.192 9.30879 23.7621 9.30879 21.9982V17.9832C9.30879 16.2194 10.7034 14.7895 12.4238 14.7895C14.1441 14.7895 15.5388 16.2194 15.5388 17.9832V21.9982C15.5388 23.7621 14.1441 25.192 12.4238 25.192Z" fill="white"/><path d="M21.7326 35.0189C20.0122 35.0189 18.6176 33.589 18.6176 31.8251V24.3436C18.6176 22.5788 20.0122 21.1499 21.7326 21.1499C23.4519 21.1499 24.8475 22.5788 24.8475 24.3436V31.8251C24.8475 33.589 23.4519 35.0189 21.7326 35.0189Z" fill="white"/><path d="M31.0404 28.9202C29.321 28.9202 27.9254 27.4903 27.9254 25.7264V11.4323C27.9254 9.66847 29.321 8.23855 31.0404 8.23855C32.7607 8.23855 34.1563 9.66847 34.1563 11.4323L34.1554 25.7264C34.1554 27.4903 32.7607 28.9202 31.0404 28.9202Z" fill="white"/></svg>