<svg viewBox="0 0 91 50" fill="transparent" xmlns="http://www.w3.org/2000/svg">
    <path d="M 90.785 22.215 C 90.221 24.143 89.464 26.01 88.525 27.787 C 86.81 31.142 84.384 34.225 82.435 36.702 C 80.172 39.578 77.645 42.177 75.252 44.593 C 73.425 46.454 71.215 47.895 68.775 48.816 C 67.319 49.367 65.775 49.649 64.219 49.649 C 62.671 49.64 61.135 49.381 59.67 48.881 C 54.312 47.097 50.644 43.36 48.767 37.774 C 48.479 36.95 48.328 36.086 48.319 35.214 C 48.342 33.657 48.447 32.102 48.635 30.555 C 48.774 29.338 48.943 28.104 49.106 26.91 C 49.275 25.674 49.45 24.396 49.592 23.135 C 49.785 21.404 49.626 19.58 49.076 17.219 L 49.017 16.966 C 48.842 16.333 48.737 15.683 48.702 15.027 C 48.676 14.389 48.814 13.755 49.102 13.185 C 49.39 12.615 49.819 12.129 50.348 11.771 C 50.867 11.442 51.463 11.253 52.077 11.223 C 52.691 11.193 53.302 11.322 53.851 11.599 C 56.274 12.733 57.99 14.689 58.952 17.414 C 58.994 17.532 59.032 17.65 59.07 17.77 C 59.104 17.874 59.137 17.979 59.173 18.082 C 59.18 18.086 59.188 18.09 59.197 18.096 L 59.207 18.101 C 59.261 18.022 59.317 17.942 59.372 17.862 C 59.534 17.625 59.698 17.386 59.855 17.143 L 60.402 16.292 C 63.095 12.106 65.879 7.774 69.141 3.878 C 69.317 3.668 69.492 3.457 69.666 3.245 C 70.21 2.584 70.773 1.901 71.379 1.276 C 71.723 0.925 72.142 0.656 72.605 0.489 C 73.067 0.322 73.561 0.261 74.05 0.31 C 75.82 0.409 76.795 1.387 76.872 3.139 C 76.886 3.453 76.883 3.768 76.879 4.134 C 76.878 4.244 76.876 4.359 76.876 4.48 L 77.082 4.307 C 77.32 4.105 77.526 3.931 77.738 3.77 C 78.749 3.002 79.681 2.581 80.669 2.444 C 81.201 2.363 81.745 2.403 82.259 2.561 C 82.773 2.718 83.246 2.989 83.642 3.353 C 84.114 3.818 84.642 4.659 84.474 6.024 C 84.404 6.595 84.333 7.166 84.257 7.775 L 84.181 8.391 L 84.329 8.377 C 84.528 8.356 84.71 8.338 84.892 8.326 C 85.387 8.287 85.886 8.353 86.354 8.52 C 86.822 8.687 87.25 8.951 87.609 9.296 C 87.936 9.62 88.191 10.012 88.354 10.443 C 88.518 10.875 88.587 11.336 88.557 11.797 C 88.479 12.632 88.306 13.455 88.041 14.251 C 87.978 14.47 87.914 14.688 87.855 14.907 C 87.75 15.255 87.617 15.594 87.457 15.921 C 87.405 16.034 87.355 16.146 87.307 16.256 C 87.332 16.278 87.353 16.298 87.372 16.317 C 87.399 16.345 87.429 16.37 87.462 16.391 C 90.27 17.261 91.542 19.493 90.785 22.215 Z M 52.35 23.608 C 52.171 25.066 51.954 26.544 51.744 27.973 C 51.606 28.908 51.469 29.843 51.341 30.78 C 51.248 31.458 51.178 32.128 51.098 32.905 C 51.06 33.274 51.02 33.663 50.974 34.08 C 51.003 34.291 51.022 34.526 51.043 34.775 C 51.07 35.421 51.178 36.06 51.364 36.678 C 53.098 41.654 56.385 44.942 61.134 46.449 C 63.664 47.252 65.992 47.281 68.052 46.537 C 70.133 45.809 72.033 44.641 73.621 43.111 C 74.817 41.941 76.172 40.615 77.35 39.224 C 77.857 38.603 78.33 37.955 78.767 37.284 C 79.18 36.673 79.607 36.041 80.083 35.461 C 81.794 33.375 83.56 31.092 84.883 28.53 C 85.872 26.615 86.802 24.576 87.725 22.298 C 87.938 21.772 87.981 21.05 87.856 20.089 C 87.844 19.946 87.799 19.807 87.725 19.684 C 87.651 19.56 87.549 19.456 87.428 19.378 C 87.332 19.322 87.223 19.29 87.111 19.284 C 87 19.278 86.888 19.298 86.786 19.343 L 86.635 19.405 C 85.952 19.683 85.178 19.999 84.765 20.523 C 83.32 22.357 81.925 24.282 80.577 26.144 C 80.15 26.736 79.722 27.325 79.292 27.914 C 79.056 28.239 78.827 28.57 78.598 28.901 C 78.273 29.371 77.937 29.857 77.581 30.317 C 77.487 30.467 77.359 30.593 77.208 30.685 C 77.056 30.777 76.886 30.832 76.709 30.847 L 76.702 30.847 C 76.381 30.844 76.074 30.648 75.788 30.264 C 75.296 29.603 75.282 28.966 75.743 28.315 C 76.014 27.934 76.278 27.54 76.534 27.157 C 76.86 26.67 77.198 26.166 77.552 25.684 C 78.339 24.619 79.128 23.556 79.92 22.494 C 81.115 20.893 82.349 19.238 83.537 17.591 C 84.688 15.959 85.558 14.146 86.11 12.227 C 86.261 11.717 86.294 11.313 85.938 10.975 C 85.583 10.637 85.152 10.586 84.582 10.816 C 83.488 11.232 82.562 11.995 81.947 12.99 C 81.803 13.227 81.665 13.468 81.528 13.71 C 81.324 14.068 81.114 14.438 80.882 14.789 L 80.254 15.744 C 78.845 17.883 77.389 20.095 75.914 22.242 C 75.303 23.13 74.598 23.968 73.916 24.78 L 73.619 25.134 C 73.024 25.844 72.318 26.078 71.522 25.83 C 71.008 25.67 70.673 25.397 70.556 25.039 C 70.441 24.688 70.542 24.283 70.848 23.867 C 71.075 23.557 71.335 23.266 71.586 22.985 C 71.765 22.785 71.95 22.578 72.12 22.367 C 75.532 18.145 78.114 14.443 80.249 10.714 C 81.013 9.381 81.822 7.774 82.032 5.965 C 82.094 5.427 82.03 5.086 81.838 4.922 C 81.646 4.758 81.3 4.749 80.783 4.894 C 79.814 5.173 78.952 5.74 78.313 6.519 C 77.221 7.808 76.357 8.861 75.592 9.836 C 73.567 12.416 71.27 15.341 69.453 18.53 C 69.11 19.103 68.736 19.658 68.332 20.19 C 68.169 20.414 68.005 20.638 67.846 20.865 C 67.78 20.976 67.692 21.073 67.588 21.148 C 67.483 21.224 67.364 21.278 67.238 21.305 C 67.112 21.333 66.981 21.335 66.855 21.31 C 66.728 21.285 66.608 21.235 66.501 21.161 C 66.273 21.042 66.098 20.842 66.009 20.6 C 65.921 20.359 65.926 20.093 66.024 19.855 C 66.092 19.651 66.185 19.457 66.299 19.276 C 66.908 18.295 67.519 17.314 68.13 16.334 C 69.423 14.261 70.76 12.117 72.044 9.99 C 72.906 8.559 73.694 7.083 74.405 5.571 C 74.704 4.87 74.878 4.122 74.917 3.361 C 74.955 2.902 74.838 2.551 74.58 2.37 C 74.323 2.189 73.948 2.196 73.523 2.39 C 73.028 2.635 72.593 2.986 72.25 3.419 C 71.99 3.739 71.73 4.059 71.469 4.378 C 70.275 5.84 69.041 7.353 67.953 8.925 C 66.005 11.742 64.074 14.641 62.206 17.445 C 61.294 18.817 60.379 20.187 59.46 21.554 C 59.214 21.94 58.925 22.297 58.599 22.617 C 58.096 23.087 57.507 23.155 56.984 22.804 C 56.368 22.392 56.446 21.782 56.603 21.239 C 56.64 21.113 56.678 20.986 56.717 20.859 C 56.887 20.38 56.997 19.882 57.046 19.376 C 57.13 17.695 56.474 16.209 54.917 14.561 C 54.416 13.991 53.753 13.588 53.017 13.405 C 52.517 13.294 52.117 13.346 51.862 13.562 C 51.619 13.767 51.504 14.128 51.528 14.606 C 51.576 15.168 51.684 15.723 51.85 16.261 C 52.496 18.654 52.666 21.15 52.35 23.608 Z M 42.629 35.034 C 42.728 37.193 41.81 39.088 40.779 41 C 38.667 44.916 35.403 47.582 31.076 48.924 C 29.657 49.375 28.179 49.61 26.691 49.62 C 24.702 49.62 22.741 49.158 20.962 48.268 C 18.764 47.184 16.735 45.666 14.578 43.493 C 10.54 39.476 6.939 35.043 3.836 30.266 C 2.392 28.066 1.234 25.692 0.389 23.2 C -0.055 21.861 -0.118 20.655 0.196 19.511 C 0.659 17.828 1.649 16.826 3.221 16.449 C 3.334 16.42 3.445 16.383 3.554 16.34 C 3.563 16.327 3.574 16.316 3.585 16.305 C 3.599 16.29 3.616 16.273 3.636 16.252 C 3.597 16.158 3.554 16.061 3.511 15.963 C 3.371 15.664 3.252 15.355 3.152 15.04 C 3.083 14.802 3.008 14.565 2.933 14.327 C 2.672 13.595 2.491 12.837 2.394 12.066 C 2.332 11.562 2.384 11.051 2.544 10.57 C 2.705 10.089 2.971 9.65 3.323 9.284 C 3.712 8.919 4.178 8.644 4.686 8.481 C 5.194 8.318 5.733 8.27 6.262 8.341 C 6.388 8.353 6.513 8.362 6.662 8.373 L 6.765 8.381 L 6.68 7.692 C 6.611 7.126 6.545 6.585 6.476 6.045 C 6.328 4.9 6.659 3.896 7.408 3.217 C 7.806 2.867 8.282 2.617 8.796 2.488 C 9.309 2.358 9.846 2.353 10.362 2.472 C 11.138 2.69 11.882 3.008 12.575 3.419 C 12.769 3.523 12.962 3.626 13.156 3.725 C 13.412 3.873 13.647 4.054 13.855 4.264 C 13.927 4.329 14.003 4.4 14.085 4.471 C 14.087 4.406 14.087 4.345 14.087 4.286 C 14.088 4.042 14.09 3.851 14.083 3.66 C 14.042 2.552 14.167 1.332 15.402 0.694 C 16.662 0.043 17.948 0.103 19.024 0.863 C 19.738 1.361 20.375 1.961 20.913 2.645 C 22.756 5.046 24.708 7.609 26.542 10.233 C 27.721 11.919 28.854 13.678 29.95 15.38 C 30.45 16.16 30.954 16.939 31.462 17.714 C 31.529 17.816 31.602 17.915 31.698 18.046 L 31.748 18.116 L 31.799 17.968 C 31.868 17.767 31.925 17.603 31.979 17.437 C 32.749 15.098 34.268 13.222 36.493 11.864 C 37.598 11.19 38.779 11.013 39.819 11.365 C 40.33 11.551 40.793 11.849 41.174 12.237 C 41.556 12.624 41.847 13.092 42.025 13.606 C 42.41 14.598 42.267 15.603 42.076 16.455 C 41.847 17.475 41.644 18.394 41.481 19.327 C 41.082 21.605 41.409 23.886 41.726 26.093 C 41.865 27.06 42.008 28.061 42.09 29.05 C 42.152 29.813 42.234 30.588 42.312 31.338 C 42.439 32.547 42.57 33.798 42.629 35.034 Z M 6.638 21.026 C 6.131 20.308 5.42 19.759 4.598 19.448 C 4.386 19.355 4.159 19.303 3.928 19.296 C 3.769 19.292 3.611 19.333 3.474 19.413 C 3.218 19.569 3.061 19.887 3.021 20.335 C 2.961 21.087 3.056 21.843 3.299 22.558 C 4.657 26.474 6.762 30.228 9.733 34.035 C 9.908 34.26 10.097 34.484 10.28 34.699 C 10.693 35.161 11.065 35.658 11.391 36.185 C 13.128 39.191 15.591 41.545 17.542 43.26 C 20.089 45.497 22.711 46.988 27.201 46.988 L 27.313 46.988 C 31.034 46.69 34.695 44.581 37.107 41.346 C 39.406 38.263 40.252 35.625 39.851 32.795 C 39.791 32.378 39.744 31.953 39.696 31.542 C 39.65 31.148 39.605 30.752 39.551 30.359 C 39.441 29.571 39.326 28.783 39.212 27.995 C 38.994 26.5 38.769 24.954 38.583 23.429 C 38.511 22.722 38.483 22.012 38.499 21.302 C 38.499 21.068 38.5 20.835 38.497 20.601 C 38.474 18.657 38.92 16.785 39.31 15.371 C 39.504 14.673 39.636 13.952 38.961 13.483 C 38.323 13.039 37.68 13.355 37.023 13.748 C 35.417 14.709 33.451 17.412 33.939 19.986 C 34.005 20.285 34.094 20.578 34.207 20.862 C 34.268 21.031 34.33 21.2 34.382 21.37 C 34.559 21.946 34.44 22.417 34.04 22.731 C 33.827 22.911 33.558 23.009 33.28 23.008 C 33.002 23.006 32.734 22.905 32.523 22.723 C 32.169 22.431 31.858 22.091 31.6 21.712 C 31.331 21.335 31.076 20.942 30.83 20.559 C 30.637 20.259 30.443 19.959 30.241 19.665 C 29.701 18.881 29.159 18.099 28.616 17.317 C 28.154 16.654 27.693 15.99 27.235 15.324 C 26.606 14.409 25.979 13.493 25.352 12.576 C 24.085 10.723 22.775 8.807 21.461 6.941 C 20.591 5.705 19.646 4.547 18.673 3.371 C 18.352 2.969 17.953 2.637 17.499 2.396 C 17.056 2.177 16.661 2.159 16.386 2.346 C 16.116 2.53 15.988 2.896 16.027 3.377 C 16.064 4.098 16.226 4.807 16.506 5.472 C 17.162 6.92 17.899 8.33 18.713 9.695 C 19.991 11.81 21.323 13.94 22.611 16 C 23.275 17.059 23.937 18.121 24.596 19.184 L 24.65 19.27 C 24.802 19.512 24.976 19.785 24.937 20.04 C 24.888 20.451 24.702 20.833 24.411 21.127 C 24.331 21.198 24.238 21.252 24.137 21.285 C 24.036 21.318 23.928 21.329 23.822 21.319 C 23.69 21.3 23.562 21.255 23.448 21.186 C 23.333 21.118 23.233 21.026 23.155 20.918 C 22.995 20.715 22.829 20.484 22.646 20.214 C 22.118 19.433 21.595 18.647 21.073 17.861 C 19.918 16.125 18.726 14.329 17.482 12.616 C 16.298 10.982 14.994 9.391 13.734 7.852 C 13.382 7.424 13.031 6.995 12.682 6.564 C 12.014 5.702 11.071 5.094 10.009 4.842 C 9.543 4.735 9.204 4.767 9.031 4.938 C 8.865 5.102 8.828 5.406 8.921 5.842 C 9.178 7.033 9.447 8.185 9.95 9.193 C 12.264 13.849 15.395 18.011 17.865 21.117 C 18.172 21.503 18.496 21.89 18.808 22.263 C 19.245 22.784 19.696 23.323 20.114 23.875 C 20.246 24.022 20.342 24.199 20.392 24.39 C 20.443 24.581 20.447 24.782 20.404 24.975 C 20.301 25.327 19.991 25.605 19.509 25.782 C 19.201 25.909 18.863 25.943 18.536 25.882 C 18.209 25.821 17.906 25.666 17.665 25.437 C 17.267 25.073 16.905 24.67 16.584 24.237 L 16.541 24.178 C 15.762 23.133 14.956 22.052 14.221 20.947 C 12.625 18.545 11.028 16.086 9.483 13.708 L 8.984 12.939 C 8.353 11.954 7.422 11.199 6.329 10.784 C 5.809 10.578 5.406 10.615 5.061 10.902 C 4.711 11.193 4.628 11.601 4.817 12.114 L 4.984 12.575 C 5.288 13.46 5.637 14.329 6.029 15.178 C 7.129 17.453 8.691 19.474 10.202 21.429 C 10.632 21.985 11.077 22.559 11.505 23.133 C 12.638 24.652 13.835 26.339 15.271 28.443 C 15.383 28.612 15.461 28.801 15.498 29 C 15.535 29.199 15.531 29.404 15.486 29.601 C 15.442 29.816 15.355 30.02 15.23 30.201 C 15.105 30.382 14.946 30.536 14.76 30.653 C 14.096 31.064 13.626 30.676 13.124 29.966 C 12.749 29.435 12.38 28.9 12.011 28.365 C 11.437 27.535 10.844 26.676 10.239 25.847 C 9.742 25.166 9.221 24.484 8.717 23.825 C 8.023 22.917 7.306 21.979 6.639 21.026 Z"
          fill="currentColor"/>
</svg>
