<svg width="38" height="29" viewBox="0 0 38 29" fill="none" xmlns="http://www.w3.org/2000/svg">
    <path fill-rule="evenodd" clip-rule="evenodd"
          d="M15.032 26.72C16.6212 25.2383 17.4158 23.4438 17.4158 21.3365C17.4158 19.0975 16.7509 17.2865 15.4212 15.9036C14.0915 14.5207 12.2267 13.8292 9.82677 13.8292C9.04841 13.8292 8.33492 13.9938 7.68629 14.3231C7.81601 12.2158 8.7403 10.4707 10.4592 9.08776C12.1781 7.70484 14.0104 6.9146 15.9563 6.71704V0C11.9348 0.329268 8.27007 2.04144 4.96203 5.13656C1.65399 8.23169 0 12.8414 0 18.9658C0 21.6658 0.810781 24.0035 2.43237 25.9792C4.05396 27.9548 6.25928 28.9426 9.04841 28.9426C11.4484 28.9426 13.4429 28.2017 15.032 26.72ZM35.4643 26.72C37.0534 25.2383 37.848 23.4438 37.848 21.3365C37.848 19.0975 37.1832 17.2865 35.8534 15.9036C34.5237 14.5207 32.6589 13.8292 30.259 13.8292C29.4806 13.8292 28.7671 13.9938 28.1185 14.3231C28.2482 12.2158 29.1725 10.4707 30.8914 9.08776C32.6103 7.70484 34.4427 6.9146 36.3886 6.71704V0C32.367 0.329268 28.7185 2.04144 25.4429 5.13656C22.1673 8.23169 20.5295 12.8414 20.5295 18.9658C20.5295 21.6658 21.3241 24.0035 22.9132 25.9792C24.5024 27.9548 26.6915 28.9426 29.4806 28.9426C31.8806 28.9426 33.8751 28.2017 35.4643 26.72Z"
          fill="#1860FF"/>
</svg>
