<svg width="23" height="19" viewBox="0 0 23 19" fill="none" xmlns="http://www.w3.org/2000/svg">
    <path d="M19.8446 5.21917C19.8576 5.41065 19.8576 5.60211 19.8576 5.79535C19.8576 11.6833 15.4618 18.4739 7.42394 18.4739V18.4704C5.04953 18.4739 2.72445 17.7804 0.725586 16.4728C1.07084 16.5151 1.41783 16.5363 1.76569 16.5371C3.7334 16.5389 5.64486 15.8656 7.1929 14.626C5.32297 14.5898 3.68321 13.3466 3.11037 11.5316C3.76542 11.6604 4.44036 11.6339 5.08328 11.4548C3.04461 11.0348 1.57791 9.20831 1.57791 7.08712C1.57791 7.06771 1.57791 7.04918 1.57791 7.03066C2.18536 7.37566 2.86549 7.56712 3.5612 7.5883C1.64108 6.27977 1.04921 3.67505 2.20873 1.63857C4.42738 4.42241 7.70083 6.11476 11.2149 6.29389C10.8627 4.74623 11.3438 3.12446 12.4791 2.03651C14.2392 0.349443 17.0073 0.435914 18.6617 2.22975C19.6404 2.03298 20.5784 1.6668 21.4368 1.14798C21.1106 2.17946 20.4278 3.05564 19.5157 3.6124C20.3819 3.50828 21.2282 3.27181 22.0252 2.91092C21.4385 3.8074 20.6995 4.58828 19.8446 5.21917Z"
          fill="#080B10"/>
</svg>
