<svg width="228" height="84" viewBox="0 0 228 84" fill="none" xmlns="http://www.w3.org/2000/svg">
    <path d="M110.922 28.002H113.573V37.2979H118.162V39.6219H110.922V28.002Z" fill="white"/>
    <path d="M124.74 27.9175C126.529 27.9175 127.507 28.6156 128.02 30.2756L130.921 39.6216H128.12L127.276 36.7336H122.223L121.395 39.6216H118.594L121.46 30.2756C121.973 28.6156 122.967 27.9175 124.74 27.9175ZM126.663 34.5734L125.584 30.8873C125.453 30.4393 125.187 30.2392 124.74 30.2392C124.293 30.2392 124.043 30.4393 123.911 30.8873L122.852 34.5734H126.663Z"
          fill="white"/>
    <path d="M131.964 28.0003H137.266C139.686 28.0003 141.077 29.1464 141.077 31.1202C141.077 32.2481 140.63 33.0963 139.786 33.6261C140.896 34.14 141.493 35.1042 141.493 36.414C141.493 38.4401 140.067 39.6181 137.598 39.6181H131.964V27.998V28.0003ZM137.101 32.8143C137.995 32.8143 138.51 32.3004 138.51 31.4204C138.51 30.5404 137.997 30.0265 137.101 30.0265H134.549V32.8143H137.101ZM137.432 37.5942C138.326 37.5942 138.842 37.0803 138.842 36.2003C138.842 35.3202 138.328 34.8063 137.432 34.8063H134.549V37.5942H137.432Z"
          fill="white"/>
    <path d="M141.409 28.002H144.176L146.049 32.9819C146.198 33.3799 146.446 33.58 146.861 33.58C147.277 33.58 147.524 33.3799 147.674 32.9819L149.546 28.002H152.247L149.878 33.846C149.431 34.9262 148.965 35.4901 148.171 35.738V39.6219H145.486V35.738C144.691 35.4879 144.226 34.9239 143.779 33.846L141.409 28.002Z"
          fill="white"/>
    <path d="M153.073 28.002H157.928C160.695 28.002 162.286 29.4141 162.286 31.8859C162.286 33.7119 161.423 34.9558 159.85 35.4878L162.517 39.6219H159.601L157.115 35.7698H155.658V39.6219H153.073V28.002ZM157.928 33.6118C159.006 33.6118 159.635 32.982 159.635 31.8859C159.635 30.7898 159.006 30.1599 157.928 30.1599H155.658V33.6118H157.928Z"
          fill="white"/>
    <path d="M164.24 28.002H166.826V39.6219H164.24V28.002Z" fill="white"/>
    <path d="M169.095 28.002H172.243L177.132 36.2019V28.002H179.699V39.6219H176.551L171.664 31.422V39.6219H169.098V28.002H169.095Z"
          fill="white"/>
    <path d="M183.925 30.3259H180.744V28.002H189.757V30.3259H186.574V39.6219H183.924V30.3259H183.925Z" fill="white"/>
    <path d="M190.801 28.002H193.452V32.65H198.423V28.002H201.074V39.6219H198.423V34.9739H193.452V39.6219H190.801V28.002Z"
          fill="white"/>
    <path d="M110.922 43.9194H113.573V53.2153H118.162V55.5394H110.922V43.9194Z" fill="white"/>
    <path d="M124.74 43.8354C126.529 43.8354 127.507 44.5335 128.02 46.1936L130.921 55.5395H128.12L127.276 52.6516H122.223L121.395 55.5395H118.594L121.46 46.1936C121.973 44.5335 122.967 43.8354 124.74 43.8354ZM126.663 50.4912L125.584 46.8051C125.453 46.3573 125.187 46.1572 124.74 46.1572C124.293 46.1572 124.043 46.3573 123.911 46.8051L122.852 50.4912H126.663Z"
          fill="white"/>
    <path d="M131.964 43.9183H137.266C139.686 43.9183 141.077 45.0644 141.077 47.0384C141.077 48.1663 140.63 49.0142 139.786 49.5439C140.896 50.0579 141.493 51.0221 141.493 52.3318C141.493 54.3578 140.067 55.536 137.598 55.536H131.964V43.916V43.9183ZM137.101 48.7323C137.995 48.7323 138.51 48.2184 138.51 47.3384C138.51 46.4583 137.997 45.9444 137.101 45.9444H134.549V48.7323H137.101ZM137.432 53.5123C138.326 53.5123 138.842 52.9983 138.842 52.1183C138.842 51.2383 138.328 50.7244 137.432 50.7244H134.549V53.5123H137.432Z"
          fill="white"/>
    <path d="M146.977 55.7043C144.441 55.7043 142.569 54.4922 142.321 52.0522H144.823C145.054 53.0983 145.932 53.5466 146.977 53.5466C148.121 53.5466 148.949 53.1304 148.949 52.2025C148.949 49.9444 142.571 51.7043 142.571 47.2383C142.571 44.9486 144.459 43.7524 146.813 43.7524C149.167 43.7524 150.99 44.8985 151.303 47.2383H148.784C148.518 46.3084 147.705 45.9105 146.811 45.9105C145.917 45.9105 145.054 46.3266 145.054 47.2383C145.054 49.3625 151.432 47.7206 151.432 52.1025C151.432 54.4425 149.528 55.7043 146.974 55.7043H146.977Z"
          fill="white"/>
    <path d="M21.8208 46.7391C21.8208 41.6933 25.6862 37.939 30.7999 37.939H33.1423C33.6894 32.0335 38.2947 27.7311 44.1915 27.7698C50.1246 27.7311 54.732 32.0721 55.2794 38.055C59.6506 38.6803 62.8147 42.1617 62.8147 46.7368C62.8147 51.7828 58.9492 55.5372 53.8357 55.5372H30.8022C25.6885 55.5372 21.8231 51.7828 21.8231 46.7368L21.8208 46.7391ZM30.7999 52.1763L50.9827 52.1377V51.3554H42.16V39.1919C42.16 38.0186 43.018 37.1181 44.1892 37.1181C45.3604 37.1181 46.2184 38.0186 46.2184 39.1919V47.1326H54.612V46.3504H47.0376V39.1919C47.0376 37.5501 45.828 36.3358 44.187 36.3358C42.5459 36.3358 41.3361 37.5479 41.3361 39.1919V51.3554L30.7954 51.394C28.1807 51.394 26.1878 49.3996 26.1878 46.7391C26.1878 44.0787 28.1784 42.0844 30.7954 42.0844H32.5522V41.3022H30.7954C27.7108 41.3022 25.3685 43.6489 25.3685 46.7391C25.3685 49.8293 27.7108 52.1763 30.7954 52.1763H30.7999ZM37.2415 47.1303V39.1897C37.2415 35.1215 40.2467 32.0721 44.1915 32.0721C48.1362 32.0721 51.1413 35.1238 51.1413 39.1897V42.0844H53.8357C56.4506 42.0844 58.4431 44.0787 58.4431 46.7391C58.4431 49.1247 56.8432 50.9642 54.6167 51.3145V52.1354C57.3106 51.7828 59.2627 49.5545 59.2627 46.7368C59.2627 43.6467 56.9204 41.2999 53.8357 41.2999H51.9609V39.1874C51.9609 34.6122 48.6037 31.208 44.1915 31.2467C39.7791 31.208 36.4221 34.6099 36.4221 39.1874V46.3458H30.0192V47.128H37.2415V47.1303Z"
          fill="white"/>
    <path d="M0.452637 0V83.8822H227.428V0H0.452637ZM83.4371 83.1385H1.19258V0.741315H83.4371V83.1385ZM226.685 83.1385H84.179V0.741315H226.688V83.1385H226.685Z"
          fill="white"/>
</svg>
