<svg width="91" height="50" viewBox="0 0 91 50" fill="none" xmlns="http://www.w3.org/2000/svg">
    <path d="M42.3124 31.3378C42.2337 30.5879 42.1521 29.813 42.0897 29.05C42.0084 28.0607 41.8648 27.0602 41.7259 26.0926C41.4094 23.8861 41.082 21.6045 41.4809 19.3272C41.6443 18.3944 41.8469 17.4752 42.0756 16.4553C42.2669 15.6031 42.4104 14.598 42.0253 13.6059C41.8467 13.092 41.556 12.6244 41.1743 12.2368C40.7928 11.8492 40.3295 11.5514 39.8186 11.3649C38.7791 11.0128 37.5975 11.1898 36.4925 11.8643C34.268 13.2224 32.7492 15.0977 31.9792 17.4374C31.9247 17.6027 31.868 17.7673 31.7991 17.9679L31.7484 18.116L31.6975 18.0464C31.6018 17.9146 31.5286 17.8161 31.4619 17.7139C30.9538 16.9385 30.4499 16.1603 29.9499 15.3795C28.8542 13.6781 27.7212 11.9189 26.5422 10.2326C24.7079 7.60895 22.7559 5.0456 20.9134 2.64511C20.3752 1.96094 19.7384 1.3605 19.0239 0.8634C17.9475 0.103261 16.6624 0.0429625 15.4024 0.693792C14.1665 1.33242 14.0419 2.5518 14.0828 3.65972C14.0899 3.85107 14.0884 4.04242 14.0865 4.28639C14.0865 4.34475 14.0865 4.40601 14.0854 4.47131C14.0028 4.39955 13.9266 4.32923 13.8546 4.26369C13.6467 4.0538 13.4118 3.87267 13.1559 3.72504C12.9624 3.62626 12.7689 3.52293 12.5749 3.41912C11.8819 3.00817 11.1381 2.68981 10.3624 2.47218C9.84628 2.35299 9.30918 2.35837 8.79555 2.48784C8.28189 2.61731 7.80639 2.86717 7.4084 3.21677C6.65903 3.89582 6.32754 4.90041 6.4756 6.04516C6.54496 6.58501 6.61098 7.12557 6.6801 7.69197L6.76456 8.38059L6.6619 8.37293C6.51336 8.36217 6.38758 8.35308 6.262 8.34112C5.73282 8.27025 5.19448 8.31814 4.68614 8.48131C4.17779 8.64448 3.71214 8.91886 3.32308 9.28445C2.97104 9.64979 2.70507 10.0891 2.54431 10.5702C2.38355 11.0514 2.33213 11.5624 2.39388 12.066C2.4914 12.8369 2.67215 13.595 2.93299 14.327C3.00809 14.5648 3.0832 14.8023 3.15232 15.0398C3.25159 15.3551 3.37144 15.6635 3.51111 15.9631C3.55416 16.0614 3.59671 16.1578 3.63642 16.2522C3.61561 16.273 3.59915 16.2903 3.58504 16.3046C3.5737 16.3155 3.56327 16.3273 3.55373 16.3398C3.44545 16.3834 3.33444 16.42 3.22147 16.4493C1.64904 16.8263 0.659293 17.8278 0.196465 19.5109C-0.118306 20.6547 -0.0553576 21.8612 0.389054 23.1997C1.23364 25.6918 2.39183 28.0664 3.8359 30.266C6.93897 35.0426 10.5399 39.4762 14.5783 43.4931C16.7351 45.6658 18.7641 47.1835 20.962 48.2684C22.7406 49.1577 24.7019 49.6203 26.6905 49.6196C28.179 49.6101 29.6574 49.3754 31.0758 48.9241C35.4027 47.5815 38.6671 44.9155 40.7787 41.0003C41.8098 39.088 42.7276 37.1926 42.6286 35.0337C42.57 33.7981 42.4389 32.5474 42.3124 31.3378ZM6.63877 21.0262C7.30563 21.9786 8.02295 22.9172 8.71683 23.8247C9.22104 24.4843 9.74216 25.1663 10.2392 25.8472C10.8441 26.6755 11.4374 27.5347 12.0107 28.3654C12.3798 28.9002 12.749 29.4351 13.1238 29.9658C13.6261 30.6762 14.0962 31.0644 14.7602 30.6532C14.9457 30.5356 15.1054 30.3818 15.2301 30.2009C15.3548 30.0201 15.4418 29.8161 15.4858 29.6008C15.5307 29.4035 15.5347 29.199 15.4977 29C15.4607 28.8007 15.3834 28.6115 15.2705 28.4434C13.8354 26.3385 12.638 24.652 11.505 23.1334C11.0768 22.5594 10.6322 21.9853 10.2022 21.4285C8.69122 19.4741 7.12879 17.4534 6.02901 15.178C5.63684 14.3286 5.28813 13.4598 4.98407 12.575L4.81659 12.1138C4.62835 11.6005 4.71087 11.1925 5.06128 10.9016C5.40571 10.6146 5.80857 10.5778 6.32905 10.7835C7.42225 11.1985 8.35296 11.954 8.98393 12.9385L9.48343 13.7075C11.0279 16.0858 12.6246 18.5451 14.2212 20.947C14.9555 22.0518 15.7616 23.1329 16.5413 24.1784L16.5844 24.2365C16.9051 24.6704 17.267 25.0725 17.6651 25.4366C17.9062 25.6662 18.2086 25.8209 18.5358 25.8822C18.863 25.9434 19.201 25.9085 19.5088 25.7817C19.991 25.6054 20.3006 25.3272 20.404 24.9752C20.4466 24.7819 20.4426 24.5812 20.3922 24.3899C20.3417 24.1985 20.2463 24.022 20.1139 23.8749C19.696 23.3231 19.2449 22.7842 18.8084 22.263C18.4958 21.8896 18.1724 21.5034 17.8648 21.1166C15.395 18.011 12.2635 13.8489 9.94956 9.19311C9.44726 8.18493 9.17751 7.03253 8.9211 5.84185C8.82758 5.40629 8.86463 5.10228 9.03134 4.93772C9.20427 4.76742 9.5427 4.73463 10.0094 4.84202C11.0705 5.09432 12.0135 5.70205 12.6816 6.5642C13.0307 6.99473 13.3815 7.42384 13.734 7.8515C14.9943 9.39068 16.2976 10.982 17.4821 12.6156C18.7259 14.3294 19.9184 16.1248 21.0725 17.8608C21.5951 18.6467 22.1175 19.4325 22.6464 20.2141C22.8291 20.4842 22.9953 20.7145 23.1546 20.9176C23.2331 21.0262 23.3328 21.1175 23.4475 21.1864C23.5623 21.2553 23.6898 21.3003 23.8224 21.3185C23.9284 21.329 24.0356 21.3175 24.1367 21.2845C24.2381 21.2517 24.3314 21.1982 24.4111 21.1271C24.7024 20.8334 24.8878 20.4507 24.9373 20.0398C24.9758 19.7853 24.8024 19.5119 24.6503 19.2703L24.596 19.1844C23.937 18.121 23.2753 17.0594 22.6107 15.9997C21.3227 13.9395 19.9907 11.8096 18.7134 9.69516C17.8993 8.32967 17.1622 6.9197 16.5057 5.47183C16.2259 4.80653 16.0641 4.09757 16.0273 3.37678C15.9879 2.89626 16.1156 2.53006 16.3861 2.34612C16.6614 2.15932 17.0558 2.17675 17.499 2.39561C17.9528 2.63721 18.3522 2.96916 18.6728 3.37102C19.6456 4.54734 20.5905 5.70549 21.4607 6.94113C22.775 8.8068 24.0851 10.7234 25.352 12.5764C25.9785 13.493 26.6059 14.4089 27.2347 15.3242C27.6932 15.9899 28.1536 16.6543 28.6162 17.3173C29.1594 18.0987 29.7012 18.8811 30.2413 19.6647C30.4432 19.9589 30.6367 20.2591 30.8299 20.5593C31.0763 20.942 31.3308 21.3354 31.5996 21.7122C31.8584 22.091 32.1694 22.4314 32.5234 22.7232C32.7336 22.9052 33.002 23.0062 33.2799 23.0076C33.5581 23.0093 33.8274 22.9112 34.0396 22.7313C34.4402 22.4166 34.5586 21.9461 34.3819 21.3704C34.3295 21.1998 34.268 21.031 34.2065 20.8623C34.0944 20.5777 34.0049 20.2847 33.9391 19.9859C33.4512 17.4121 35.4168 14.7093 37.0232 13.7477C37.68 13.3547 38.3225 13.0392 38.9606 13.4827C39.6356 13.9517 39.5036 14.6727 39.3103 15.3708C38.92 16.7847 38.4744 18.657 38.4971 20.6014C38.5 20.8346 38.4992 21.068 38.4988 21.3017C38.483 22.0119 38.511 22.7223 38.5825 23.4291C38.769 24.9544 38.9941 26.5002 39.2115 27.9954C39.3259 28.783 39.4407 29.5707 39.5505 30.3588C39.6052 30.7523 39.6504 31.1481 39.6956 31.5421C39.7435 31.953 39.7913 32.3778 39.8506 32.7947C40.252 35.6252 39.406 38.2625 37.1074 41.3459C34.6954 44.5811 31.0342 46.6903 27.3127 46.9881H27.2007C22.7109 46.9881 20.0885 45.4967 17.5424 43.2599C15.5906 41.5449 13.1275 39.1906 11.3912 36.1845C11.0652 35.6575 10.6932 35.1605 10.2796 34.6991C10.0971 34.4838 9.90847 34.2597 9.73338 34.0354C6.76171 30.2284 4.65689 26.4739 3.29926 22.5575C3.05605 21.8432 2.96143 21.0867 3.0213 20.3347C3.061 19.8872 3.21769 19.5693 3.47362 19.4126C3.6114 19.3325 3.76871 19.2921 3.92806 19.2961C4.15895 19.3033 4.38629 19.3547 4.59773 19.4478C5.42016 19.7585 6.13088 20.3081 6.63829 21.0262H6.63877Z"
          fill="black"/>
    <path d="M87.4619 16.391C87.4289 16.3704 87.3987 16.3454 87.3724 16.3167C87.3531 16.2982 87.3318 16.2779 87.3069 16.2557C87.3547 16.1456 87.4054 16.0344 87.4566 15.9208C87.6169 15.5942 87.7501 15.255 87.8549 14.9066C87.9142 14.6885 87.9776 14.4704 88.0412 14.2515C88.3057 13.4555 88.4787 12.6319 88.5567 11.7967C88.587 11.3362 88.5179 10.8746 88.3543 10.4431C88.1909 10.0116 87.9364 9.62024 87.6085 9.29555C87.2497 8.95133 86.8221 8.68698 86.354 8.51984C85.8856 8.35272 85.3872 8.28663 84.8916 8.32588C84.7098 8.33808 84.528 8.35647 84.3288 8.37656L84.1805 8.39142L84.2573 7.77501C84.3331 7.1658 84.4041 6.59512 84.4742 6.02418C84.6416 4.65865 84.114 3.81791 83.6418 3.35293C83.246 2.98867 82.7733 2.71789 82.2591 2.56057C81.7446 2.40326 81.2014 2.36343 80.6694 2.44402C79.6811 2.58059 78.7492 3.00178 77.7375 3.77005C77.526 3.93054 77.3201 4.10494 77.0816 4.30657L76.8764 4.48022C76.8764 4.35871 76.8781 4.24366 76.8793 4.13388C76.8829 3.7684 76.8857 3.45267 76.8723 3.13934C76.7953 1.38729 75.8199 0.40877 74.0499 0.309985C73.5608 0.260712 73.0669 0.321944 72.6045 0.48916C72.1422 0.656376 71.7233 0.925271 71.3789 1.27604C70.7732 1.90104 70.2103 2.58442 69.6659 3.24506C69.4915 3.4565 69.3173 3.66794 69.1413 3.87795C65.8785 7.77431 63.0947 12.106 60.4022 16.2918L59.8546 17.1431C59.6982 17.3863 59.5341 17.6248 59.3715 17.8618C59.3165 17.9422 59.2612 18.0221 59.2067 18.101L59.1969 18.0955C59.1878 18.0902 59.1796 18.0859 59.1729 18.0819C59.1368 17.9785 59.1035 17.8742 59.0701 17.7697C59.032 17.6501 58.9938 17.5317 58.9524 17.4138C57.9902 14.6892 56.2735 12.7327 53.8512 11.5987C53.3023 11.3221 52.6909 11.1926 52.077 11.2228C51.463 11.2531 50.8673 11.442 50.3481 11.7711C49.819 12.1286 49.3899 12.6154 49.1017 13.1852C48.8135 13.7551 48.6759 14.3891 48.7016 15.0272C48.7367 15.6829 48.8423 16.333 49.0168 16.9661L49.0761 17.2186C49.6263 19.5799 49.7853 21.4044 49.5915 23.1354C49.4504 24.3955 49.2754 25.6742 49.106 26.9103C48.9427 28.1038 48.7735 29.3378 48.635 30.5553C48.4471 32.1016 48.3418 33.6566 48.3193 35.2142C48.3279 36.086 48.479 36.9504 48.7666 37.7735C50.6435 43.3595 54.312 47.0965 59.67 48.8811C61.135 49.3808 62.6711 49.6403 64.2189 49.6494C65.7754 49.6491 67.3189 49.3666 68.7747 48.8158C71.2145 47.8949 73.4247 46.4538 75.2516 44.5929C77.6454 42.1771 80.1724 39.5779 82.4351 36.7017C84.3843 34.2246 86.8099 31.142 88.5253 27.7867C89.4637 26.01 90.2207 24.1434 90.7847 22.215C91.5424 19.4931 90.2697 17.2607 87.4619 16.391ZM51.8504 16.2611C51.6839 15.7226 51.5757 15.1678 51.5276 14.6062C51.5037 14.1279 51.6192 13.7674 51.8624 13.5617C52.1172 13.3464 52.5169 13.2936 53.017 13.4055C53.7534 13.5881 54.4164 13.9914 54.9171 14.5615C56.4737 16.2088 57.1303 17.6949 57.0458 19.3761C56.9968 19.882 56.8865 20.3797 56.7174 20.8591C56.6784 20.9861 56.6397 21.1126 56.6031 21.2389C56.4457 21.7816 56.3678 22.392 56.9835 22.8044C57.507 23.155 58.0957 23.0869 58.5989 22.6173C58.9252 22.2968 59.2141 21.9402 59.46 21.5544C60.379 20.1872 61.2943 18.8174 62.2061 17.4449C64.0739 14.6414 66.0053 11.7424 67.9533 8.92528C69.0406 7.35286 70.2751 5.83976 71.4694 4.37761C71.7301 4.05868 71.9902 3.73915 72.2498 3.41895C72.5928 2.98602 73.0276 2.6347 73.523 2.39044C73.9476 2.19598 74.3226 2.18904 74.5804 2.37011C74.8383 2.55117 74.9552 2.90158 74.917 3.36058C74.8775 4.12173 74.7041 4.86995 74.4049 5.57092C73.694 7.08349 72.9059 8.55861 72.0439 9.99039C70.7604 12.1172 69.423 14.2608 68.1302 16.3339C67.5185 17.3141 66.9082 18.2947 66.299 19.2759C66.1845 19.4572 66.0921 19.6514 66.024 19.8547C65.9264 20.0927 65.9211 20.3587 66.0094 20.6005C66.0977 20.8421 66.2731 21.0423 66.5012 21.1614C66.6076 21.2346 66.7279 21.2853 66.8546 21.3099C66.9814 21.3348 67.1118 21.3331 67.2379 21.3054C67.3641 21.2777 67.4831 21.2243 67.5877 21.1485C67.6923 21.0727 67.7801 20.9763 67.8458 20.8651C68.0051 20.6383 68.1688 20.4139 68.3324 20.1898C68.7364 19.6576 69.1104 19.1034 69.4525 18.5296C71.2703 15.3412 73.5665 12.4165 75.592 9.83587C76.3574 8.86142 77.2213 7.80754 78.3125 6.51927C78.9521 5.73962 79.8139 5.17296 80.7831 4.89449C81.3002 4.74907 81.6458 4.75768 81.8381 4.92176C82.0304 5.08584 82.094 5.42717 82.0316 5.96462C81.8218 7.7736 81.0127 9.38067 80.2492 10.7139C78.1142 14.4428 75.5315 18.1455 72.1204 22.3669C71.9501 22.5779 71.765 22.785 71.5861 22.9852C71.3351 23.2663 71.0754 23.5566 70.8479 23.8666C70.5418 24.2833 70.4413 24.6882 70.5558 25.0386C70.6733 25.3974 71.0075 25.6703 71.5217 25.8303C72.3182 26.0784 73.024 25.844 73.6187 25.1341L73.9157 24.7803C74.5984 23.9685 75.303 23.1299 75.9139 22.2418C77.3885 20.0946 78.8449 17.8831 80.2535 15.744L80.8823 14.7892C81.1138 14.4383 81.3243 14.0678 81.5281 13.7097C81.6652 13.4682 81.8025 13.2266 81.9465 12.9896C82.5621 11.9953 83.4883 11.2316 84.5816 10.8165C85.1518 10.5864 85.5826 10.6369 85.938 10.9751C86.2935 11.3133 86.2612 11.7166 86.1095 12.227C85.558 14.1463 84.688 15.9595 83.5366 17.5911C82.3495 19.2383 81.1146 20.8935 79.9198 22.4944C79.1279 23.5559 78.3386 24.6193 77.5519 25.6844C77.1981 26.1659 76.8604 26.6699 76.5339 27.1574C76.2782 27.5401 76.0137 27.9345 75.7434 28.3148C75.2817 28.9656 75.2963 29.6031 75.7883 30.2642C76.0742 30.6481 76.3815 30.844 76.7023 30.8466H76.7092C76.8857 30.8325 77.0563 30.7772 77.2077 30.6854C77.3591 30.5933 77.4868 30.4672 77.5806 30.3173C77.9367 29.8566 78.2725 29.3706 78.5978 28.9006C78.8265 28.5698 79.0556 28.239 79.2915 27.9142C79.722 27.3255 80.1504 26.7357 80.5766 26.1442C81.9252 24.2823 83.3196 22.3569 84.7648 20.5233C85.1781 19.999 85.9521 19.6832 86.635 19.4046L86.7857 19.3429C86.8881 19.2981 86.9998 19.2778 87.1112 19.284C87.2229 19.29 87.3315 19.3223 87.4284 19.378C87.5492 19.4558 87.6506 19.5605 87.7248 19.6837C87.7989 19.8069 87.8436 19.9456 87.8556 20.0889C87.9807 21.0495 87.9379 21.7721 87.7245 22.2985C86.8017 24.5763 85.8722 26.6146 84.8832 28.5298C83.56 31.0922 81.7939 33.3755 80.0827 35.4612C79.6072 36.0408 79.1798 36.6725 78.7672 37.2836C78.3299 37.9552 77.8568 38.603 77.3502 39.2239C76.1722 40.6145 74.8165 41.9411 73.6208 43.1114C72.0329 44.6408 70.1334 45.8092 68.0523 46.5366C65.9917 47.2812 63.6639 47.2518 61.1335 46.4488C56.3849 44.9419 53.0981 41.6543 51.364 36.6782C51.1778 36.0597 51.0698 35.4206 51.0427 34.7752C51.0223 34.5265 51.0028 34.2914 50.9739 34.0799C51.0196 33.663 51.0596 33.2743 51.0981 32.9046C51.1783 32.1284 51.2479 31.458 51.3405 30.7801C51.4687 29.8434 51.6062 28.9082 51.7438 27.973C51.954 26.5441 52.1712 25.0664 52.3501 23.6083C52.6656 21.1502 52.4957 18.654 51.8504 16.2611Z"
          fill="black"/>
</svg>
