<svg width="457" height="280" viewBox="0 0 457 280" fill="none" xmlns="http://www.w3.org/2000/svg"
     xmlns:xlink="http://www.w3.org/1999/xlink">
    <mask id="mask0_9_587" style="mask-type:alpha" maskUnits="userSpaceOnUse" x="0" y="0" width="457" height="281">
        <path fill-rule="evenodd" clip-rule="evenodd"
              d="M0 16.0001C0 7.16356 7.16345 0.00012207 16 0.00012207H362C370.837 0.00012207 378 7.16356 378 16.0001V176.965C378 181.208 379.686 185.278 382.686 188.279L386.722 192.314C389.722 195.314 393.792 197 398.035 197H441C449.837 197 457 204.164 457 213V264C457 272.837 449.837 280 441 280H390C381.163 280 374 272.837 374 264V221.036C374 216.792 372.314 212.723 369.314 209.722L364.278 204.686C361.278 201.686 357.208 200 352.964 200H16C7.16345 200 0 192.837 0 184V16.0001Z"
              fill="#D9D9D9"/>
    </mask>
    <g mask="url(#mask0_9_587)">
        <rect width="503" height="335" transform="matrix(-1 0 0 1 464 -32.9999)" fill="url(#pattern0)"/>
    </g>
    <defs>
        <pattern id="pattern0" patternContentUnits="objectBoundingBox" width="1" height="1">
            <use xlink:href="#image0_9_587" transform="matrix(0.000244141 0 0 0.000366575 0 -0.000741896)"/>
        </pattern>
    </defs>
</svg>
