<?xml version="1.0" encoding="utf-8"?>
<svg width="49px" height="49" viewBox="0 0 49 49" fill="none" xmlns="http://www.w3.org/2000/svg">
    <path d="M 27.986 25.325 C 28.497 27.134 29.404 28.594 30.383 30.052 C 31.214 31.291 32.203 31.739 33.712 31.651 C 35.864 31.526 36.198 31.932 36.363 34.078 C 36.486 35.671 36.6 37.265 36.727 38.986 C 37.204 38.986 37.618 38.986 38.035 38.986 C 39.398 38.986 40.448 39.921 40.504 41.204 C 40.553 42.316 40.701 43.425 40.806 44.534 C 40.891 45.432 41.033 46.33 41.047 47.229 C 41.068 48.586 40.56 49.034 39.171 48.998 C 35.309 48.896 31.449 48.724 27.587 48.703 C 22.662 48.676 17.736 48.771 12.81 48.813 C 12.101 48.82 11.392 48.85 10.684 48.824 C 9.5 48.781 8.83 48.108 8.895 46.949 C 8.999 45.107 9.159 43.268 9.31 41.428 C 9.375 40.62 9.74 40.041 10.626 39.901 C 11.491 39.764 12.355 39.617 13.371 39.45 C 13.432 38.781 13.516 38.032 13.565 37.28 C 13.637 36.167 13.674 35.052 13.741 33.938 C 13.833 32.425 14.381 31.804 15.904 31.595 C 16.779 31.474 17.668 31.445 18.552 31.396 C 18.915 31.375 19.248 31.373 19.447 30.988 C 20.312 29.313 21.301 27.692 21.795 25.854 C 21.845 25.608 21.88 25.359 21.899 25.109 C 21.635 25.015 21.411 24.927 21.182 24.856 C 18.833 24.13 16.756 22.735 15.214 20.847 C 14.815 20.37 14.364 20.21 13.775 20.11 C 10.482 19.55 7.431 18.4 4.809 16.311 C 3.102 14.951 1.95 13.245 1.581 11.073 C 0.968 7.446 3.915 3.88 7.641 3.779 C 8.877 3.746 10.114 3.774 11.383 3.774 C 11.559 3.083 11.688 2.51 11.849 1.949 C 12.107 1.047 12.544 0.357 13.664 0.379 C 14.115 0.389 14.569 0.201 15.023 0.196 C 21.792 0.119 28.561 0.054 35.33 0 C 35.753 0.006 36.174 0.057 36.586 0.153 C 37.522 0.348 38.036 0.969 38.251 1.855 C 38.333 2.194 38.394 2.537 38.485 2.977 C 38.756 2.977 39.027 2.98 39.298 2.977 C 40.503 2.959 41.707 2.926 42.912 2.924 C 45.55 2.918 47.725 4.898 47.481 7.975 C 47.021 13.771 42.494 18.265 37.449 19.142 C 37.416 19.153 37.381 19.16 37.346 19.162 C 36 18.956 35.435 19.792 34.785 20.778 C 33.22 23.147 30.987 24.685 27.986 25.325 Z M 13.917 2.128 C 13.868 2.415 13.831 2.583 13.812 2.752 C 13.364 6.888 13.787 11.07 15.055 15.037 C 16.413 19.394 19.382 22.146 24.124 22.746 C 27.135 23.128 29.866 22.573 31.897 20.154 C 32.547 19.374 33.093 18.516 33.522 17.6 C 35.677 13.021 36.265 8.203 35.638 3.22 C 35.596 2.888 35.497 2.563 35.401 2.128 L 13.917 2.128 Z M 11.167 41.914 C 11.324 43.55 11.469 45.061 11.618 46.628 C 12.095 46.628 12.442 46.641 12.788 46.626 C 15.616 46.504 18.444 46.295 21.274 46.267 C 26.55 46.215 31.827 46.267 37.104 46.274 C 37.408 46.274 37.712 46.244 38.051 46.226 C 38.21 44.656 38.36 43.182 38.519 41.621 L 11.167 41.914 Z M 33.09 39.055 C 33.24 37.386 33.564 35.837 33.567 34.193 C 27.693 34.072 21.952 33.58 16.068 33.853 C 16.275 35.756 16.472 37.563 16.67 39.378 L 33.09 39.055 Z M 11.28 5.766 C 9.964 5.948 8.782 6.13 7.596 6.27 C 6.399 6.413 5.605 7.065 5.04 8.071 C 4.116 9.719 4.302 11.325 5.392 12.77 C 7.23 15.207 9.924 16.279 12.935 17.133 C 11.618 13.389 11.346 9.666 11.28 5.766 Z M 37.07 15.981 C 40.216 15.047 42.284 13.252 43.526 10.601 C 43.973 9.584 44.266 8.507 44.396 7.406 C 44.541 6.353 44.032 5.714 43.092 5.57 C 41.628 5.347 40.153 5.509 38.6 5.489 C 38.798 9.051 38.278 12.617 37.07 15.981 Z M 25.614 25.549 L 24.147 25.474 C 23.456 27.447 22.795 29.332 22.102 31.311 L 27.874 31.311 L 25.614 25.549 Z"
          fill="black"/>
</svg>
