<svg width="51" height="50" viewBox="0 0 51 50" fill="none" xmlns="http://www.w3.org/2000/svg">
    <path d="M2.90295 40.7173C3.45852 40.7938 4.00026 40.603 4.51228 40.1487C5.26961 39.4761 6.08277 38.8347 6.86842 38.2146C7.17927 37.9694 7.49032 37.7244 7.799 37.4764C8.20766 37.1487 8.62026 36.8254 9.04813 36.4902L9.47501 36.1552C9.78705 36.5585 10.1031 36.955 10.4098 37.3399C11.3639 38.5368 12.2668 39.6698 13.0136 40.9425L12.9459 41.0032C12.8342 41.103 12.7386 41.1887 12.6384 41.2689C12.0787 41.7163 11.5177 42.1626 10.9554 42.6082C9.794 43.5314 8.59276 44.4855 7.42419 45.4406C6.81259 45.9404 6.52864 46.386 6.53082 46.8425C6.53319 47.3045 6.83001 47.7567 7.46498 48.2657C8.40611 49.0435 9.53435 49.5681 10.7406 49.7891C11.5302 49.9278 12.3304 49.9984 13.1324 50C13.8783 49.9998 14.6227 49.9366 15.3577 49.811C20.928 48.8656 24.938 43.7431 24.4865 38.1484C24.4032 36.9978 24.1232 35.8697 23.6581 34.8117L36.0245 24.6975C36.3261 24.7719 36.6134 24.8482 36.8919 24.9218C37.4998 25.0944 38.1162 25.2359 38.7387 25.3452C40.0898 25.5491 41.4684 25.483 42.7932 25.1507C44.1178 24.8183 45.3616 24.2265 46.4506 23.4105C47.6611 22.5235 48.679 21.4052 49.4443 20.1221C50.2095 18.8392 50.7065 17.4175 50.9055 15.9413C51.2935 13.2299 50.4131 10.8191 49.6027 9.02212C49.5698 8.94933 49.5347 8.87716 49.4999 8.80496C49.4035 8.62383 49.3269 8.43297 49.2716 8.23568C49.1358 7.65608 48.9045 7.29839 48.5642 7.14204C48.2507 6.99822 47.8619 7.04188 47.4081 7.27141C46.8002 7.6027 46.2403 8.01296 45.7427 8.49126C44.6152 9.52289 43.489 10.5867 42.3996 11.6158C42.0143 11.9796 41.6294 12.3426 41.2453 12.7047L36.2196 8.52785L36.2314 8.5058C36.2657 8.43442 36.3059 8.36589 36.3514 8.30104C37.5744 6.71368 39.0604 4.87448 40.822 3.25816C41.0607 3.05532 41.2744 2.82545 41.4589 2.57328C41.7626 2.12165 41.7163 1.6315 41.3466 1.38123C41.2631 1.32461 41.1793 1.26729 41.095 1.20924C40.5269 0.817882 39.9397 0.414212 39.2822 0.242209C38.3714 0.025706 37.4317 -0.0463554 36.4981 0.0288532C34.2572 0.140843 32.0731 0.766551 30.1187 1.85638C26.5051 3.90946 24.6636 6.90155 24.6449 10.7496C24.6344 12.0207 24.9584 13.2726 25.5854 14.3824C21.5451 17.5035 17.931 20.3683 14.7074 23.661C13.0783 22.8523 11.3827 22.9266 9.93062 23.1096C6.12317 23.5906 3.33737 25.3599 1.65026 28.3699C0.385894 30.6124 -0.172541 33.1768 0.0464769 35.7349C0.162106 37.216 0.53176 38.4304 1.17683 39.4475C1.6336 40.1661 2.26204 40.6283 2.90295 40.7173ZM16.6932 24.7187C17.9582 23.6675 19.2258 22.6194 20.4959 21.5749C21.9312 20.3912 23.3647 19.2054 24.7964 18.0172C25.2878 17.6079 25.7709 17.1758 26.238 16.7565C26.6576 16.3804 27.0912 15.9916 27.5276 15.6233C27.9331 15.2808 27.9236 14.9006 27.8521 14.5402C27.4363 12.4286 27.3955 10.564 27.7291 8.83963C27.8925 7.93766 28.2362 7.07696 28.7403 6.30782C29.2442 5.53868 29.8982 4.87653 30.6642 4.3601C32.8647 2.82952 35.5291 2.0892 38.2146 2.26217C38.388 2.27635 38.5603 2.30428 38.7293 2.34558C38.6105 2.46788 38.5068 2.57625 38.4036 2.68544C37.97 3.1449 37.5354 3.60346 37.1 4.06123C36.0012 5.21927 34.8649 6.41703 33.7648 7.61166C33.0213 8.41904 33.0257 8.99359 33.7812 9.80762C35.1648 11.2981 36.5356 12.7088 38.1839 14.3979C38.4852 14.689 38.8176 14.947 39.175 15.1673C40.4563 16.0088 41.0251 16.0958 42.3232 15.0531C43.4913 14.115 44.6425 13.1203 45.756 12.1584C46.2312 11.7477 46.7074 11.3379 47.1847 10.929C47.3726 10.7692 47.5592 10.608 47.7692 10.4262L47.8237 10.3794C48.2216 12.1517 48.5636 13.835 48.1222 15.5258C47.0095 19.7916 44.0008 22.056 39.4213 22.0762C38.8697 22.0799 38.3088 22.0637 37.7655 22.0486C37.145 22.0318 36.5027 22.015 35.8703 22.0232C35.465 22.0245 35.0704 22.1513 34.7417 22.386L34.1426 22.8626C32.2355 24.3788 30.2639 25.9464 28.3841 27.559C26.9753 28.7679 25.5862 30.0441 24.2428 31.2781C23.6488 31.824 23.0533 32.369 22.4559 32.9126C22.4385 32.929 22.422 32.9463 22.4064 32.9646C22.4015 32.9711 22.3959 32.9772 22.3898 32.9828C22.2991 33.0611 22.1979 33.1365 22.0904 33.2151C21.8178 33.3832 21.5891 33.6123 21.4226 33.8839C21.2881 34.2166 21.2289 34.5743 21.2493 34.932C21.2473 35.0369 21.2456 35.1412 21.2396 35.2428C21.2198 35.5735 21.2081 35.9049 21.1963 36.236C21.1796 36.6973 21.1624 37.1737 21.1232 37.6383C21.0945 37.9786 21.0729 38.321 21.0515 38.6638C21.0193 39.6121 20.906 40.5563 20.7132 41.4857C19.9913 44.4955 17.9702 46.3386 14.7057 46.9638C13.4017 47.2376 12.0548 47.2458 10.7475 46.9877C10.4794 46.9315 10.2074 46.8493 9.8924 46.7542C9.83914 46.7378 9.7843 46.7214 9.72787 46.7045C10.0676 46.447 10.4009 46.1956 10.7277 45.9498C11.7409 45.1866 12.6974 44.4665 13.6329 43.7153C14.1189 43.3085 14.5799 42.8737 15.0137 42.4131C15.1603 42.2632 15.307 42.1135 15.4553 41.9661C16.0352 41.3895 16.113 40.6676 15.6802 39.8786C15.3927 39.3315 15.0447 38.8176 14.6427 38.3462C13.5199 37.0714 12.3261 35.7662 11.094 34.4667C10.19 33.5129 9.62075 33.4799 8.55574 34.3174C7.528 35.1261 6.50253 35.938 5.47928 36.7524C4.89322 37.2176 4.30689 37.6825 3.72029 38.1472C3.60348 38.2396 3.4827 38.3279 3.33994 38.4331C3.3342 38.4372 3.32826 38.4415 3.32252 38.446C2.83464 36.8227 2.78231 35.1021 3.17066 33.4527C3.34379 32.7142 3.57219 31.9896 3.85394 31.2845C4.95361 28.5503 7.02422 27.0434 10.1844 26.6772L11.5292 26.5207C12.7249 26.381 13.9206 26.2413 15.1171 26.1098C15.3387 26.1068 15.5541 26.037 15.7343 25.9094C15.9145 25.7818 16.0509 25.603 16.1251 25.3965C16.2563 25.1286 16.4512 24.896 16.6932 24.7187Z"
          fill="black"/>
</svg>
