<svg width="114" height="38" viewBox="0 0 114 38" fill="none" xmlns="http://www.w3.org/2000/svg">
    <path d="M24.907 29.2006C24.907 33.8915 19.8075 37.434 12.8612 37.434C5.9149 37.434 0.427734 33.8438 0.427734 28.1954H6.59639C6.59639 30.3976 9.26768 32.2162 12.862 32.2162C16.1647 32.2162 18.3991 30.8282 18.3991 29.2006C18.3991 24.9881 0.573882 29.1529 0.573882 18.9084C0.573882 14.4085 5.43112 10.6265 12.3766 10.6265C19.3221 10.6265 24.3247 14.5518 24.3247 20.2009H18.1561C18.1561 18.0465 16.0186 15.8451 12.3758 15.8451C8.97617 15.8451 6.83867 17.1376 6.83867 18.9084C6.83867 23.3605 24.907 19.2435 24.907 29.2006ZM29.8611 1.24474H36.0298V36.6683H29.8611V1.24474ZM49.4839 4.21256C49.4839 6.55801 47.5895 8.42513 45.2097 8.42513C42.8299 8.42513 40.9355 6.55801 40.9355 4.21256C40.9355 1.86712 42.8299 0 45.2097 0C47.5895 0 49.4839 1.86712 49.4839 4.21256ZM42.1016 11.3452H48.2702V36.6683H42.1016V11.3452ZM74.4493 1.24474H80.618V36.6683H74.4493V33.5565C72.1664 36.0937 68.9606 37.434 65.7555 37.434C59.5384 37.434 53.2244 32.599 53.2244 24.0306C53.2244 15.4622 59.5384 10.6273 65.7555 10.6273C68.9614 10.6273 72.1664 11.9676 74.4493 14.457V1.24474ZM74.4493 24.0306C74.4493 19.1479 70.8066 16.1801 66.9208 16.1801C63.035 16.1801 59.3922 19.1002 59.3922 24.0306C59.3922 28.9611 62.9865 31.8334 66.9208 31.8334C70.855 31.8334 74.4493 28.8656 74.4493 24.0306ZM113.937 24.0306C113.937 31.4028 107.963 37.434 99.7546 37.434C91.5462 37.434 85.5237 31.402 85.5237 24.0306C85.5237 16.1324 91.5462 10.6273 99.7546 10.6273C107.963 10.6273 113.937 16.1324 113.937 24.0306ZM107.672 24.0306C107.672 19.2912 104.126 16.1324 99.7546 16.1324C95.3835 16.1324 91.7892 19.2442 91.7892 24.0306C91.7892 28.817 95.2866 31.8811 99.7546 31.8811C104.223 31.8811 107.672 28.6738 107.672 24.0306Z"
          fill="white"/>
</svg>
