<svg width="22" height="21" viewBox="0 0 22 21" fill="none" xmlns="http://www.w3.org/2000/svg"><path d="M10.6807 5.06473C10.4988 5.06473 10.3188 5.07403 10.1415 5.09222C9.9642 5.11042 9.78932 5.13738 9.61744 5.17276C9.44556 5.20816 9.27672 5.25199 9.11128 5.30373L8.62565 5.48235L8.1633 5.70601L7.727 5.97196L7.31934 6.27744L6.94316 6.61976L6.60112 6.99629L6.29587 7.40422L6.03005 7.8409L5.80667 8.30355C5.73953 8.4618 5.6798 8.62404 5.6281 8.78965C5.5764 8.95527 5.53264 9.12433 5.49724 9.29634C5.46185 9.46833 5.43493 9.6433 5.4167 9.82081C5.39848 9.99832 5.38933 10.1784 5.38933 10.3605C5.38933 10.5426 5.39861 10.7227 5.4167 10.9002C5.4347 11.0763 5.46157 11.2513 5.49724 11.4247C5.53264 11.5974 5.5764 11.7658 5.6281 11.9314C5.6798 12.097 5.73946 12.2592 5.80667 12.4175L6.03005 12.8801L6.29587 13.3168L6.60112 13.7248L6.94316 14.1013L7.31934 14.4437L7.727 14.7491L8.1633 15.015L8.62565 15.2387L9.11128 15.4173L9.61744 15.5483C9.79066 15.584 9.96557 15.6109 10.1415 15.6289C10.3207 15.6472 10.5007 15.6564 10.6807 15.6563C10.8627 15.6563 11.0427 15.6471 11.2199 15.6289C11.3959 15.6109 11.5708 15.584 11.744 15.5483L12.2502 15.4173L12.7358 15.2387L13.1981 15.015L13.6345 14.7491L14.0422 14.4437L14.4184 14.1013L14.7605 13.7248L15.0657 13.3168L15.3315 12.8801L15.555 12.4175L15.7334 11.9314C15.7852 11.7658 15.829 11.5967 15.8643 11.4247L15.9448 10.9001C15.963 10.7226 15.9722 10.5425 15.9722 10.3604C15.9722 10.1783 15.963 9.99824 15.9448 9.82074C15.9268 9.64466 15.9 9.46962 15.8643 9.29626C15.829 9.12361 15.7852 8.95527 15.7334 8.78958L15.555 8.3035L15.3315 7.84083L15.0657 7.40415L14.7605 6.99621L14.4184 6.61969L14.0422 6.27737L13.6345 5.97191L13.1981 5.70595L12.7358 5.4823L12.2502 5.30366L11.744 5.17271L11.2199 5.09215C11.0408 5.07383 10.8608 5.06472 10.6807 5.06473ZM10.6807 6.89263C10.8011 6.89263 10.9198 6.8986 11.0367 6.91042L11.3814 6.96269L11.7144 7.04768L12.0332 7.1637L12.3363 7.30913L12.6214 7.48211L12.8878 7.68114L13.1335 7.90439L13.3566 8.15022L13.5554 8.41691L13.7283 8.70285L13.8735 9.00634C13.9171 9.1102 13.9558 9.21665 13.9895 9.32549C14.0231 9.43433 14.0514 9.54556 14.0743 9.65884C14.0972 9.77213 14.1141 9.88742 14.1265 10.0045L14.1442 10.3608C14.1442 10.4812 14.1383 10.6001 14.1265 10.7172C14.1147 10.8344 14.0973 10.9496 14.0743 11.0629C14.0513 11.1761 14.0229 11.2873 13.9895 11.3962L13.8735 11.7154L13.7283 12.0188L13.5554 12.3047L13.3566 12.5715L13.1335 12.8173L12.8878 13.0406L12.6214 13.2396L12.3363 13.4126L12.0332 13.558L11.7144 13.674L11.3814 13.759L11.0367 13.8112C10.9184 13.8231 10.7996 13.829 10.6807 13.829C10.5618 13.829 10.4429 13.8231 10.3246 13.8112L9.9799 13.759C9.86674 13.736 9.75564 13.7076 9.64687 13.674L9.32804 13.558L9.02491 13.4126L8.73987 13.2396L8.4734 13.0406L8.22773 12.8173L8.00468 12.5715L7.80582 12.3047L7.63294 12.0188L7.48777 11.7154L7.37177 11.3962L7.28692 11.0629L7.23476 10.7172C7.22289 10.5988 7.21696 10.4799 7.21699 10.3608C7.21696 10.2418 7.22289 10.1229 7.23476 10.0045C7.24649 9.88742 7.26392 9.77206 7.28692 9.65884C7.3097 9.5464 7.33803 9.43516 7.37184 9.32554L7.48784 9.0064L7.63301 8.70292L7.80589 8.41699L8.00474 8.15029L8.2278 7.90446L8.47346 7.68119L8.73993 7.48218L9.02497 7.30919L9.32809 7.16376C9.43243 7.11987 9.53887 7.08114 9.647 7.04775L9.98003 6.96275C10.0932 6.93977 10.2084 6.92224 10.3247 6.91049C10.4431 6.89862 10.5618 6.89262 10.6807 6.89263Z" fill="#080B10"/><path d="M16.1868 3.55824C16.1448 3.55824 16.1029 3.56037 16.061 3.56462C16.0192 3.56885 15.9777 3.57518 15.9365 3.5836C15.8954 3.59202 15.8546 3.6025 15.8145 3.61501C15.7742 3.62754 15.7349 3.64207 15.6961 3.65857C15.6574 3.6751 15.6196 3.69356 15.5827 3.71389C15.5458 3.73419 15.51 3.75633 15.4754 3.78024C15.4406 3.80416 15.4071 3.82983 15.3751 3.85713C15.3429 3.88441 15.3121 3.91329 15.2828 3.94366C15.2537 3.97405 15.2259 4.0059 15.1998 4.03908C15.1736 4.07228 15.1492 4.10675 15.1265 4.14241C15.1038 4.17804 15.0829 4.21479 15.0638 4.25252C15.0449 4.29027 15.0276 4.32897 15.0124 4.36847C14.9972 4.40794 14.9839 4.44817 14.9726 4.48898C14.9614 4.5298 14.9522 4.57116 14.9451 4.61291C14.938 4.65464 14.9329 4.6967 14.9299 4.73895C14.9278 4.76886 14.9268 4.79886 14.9268 4.82886C14.9268 4.87123 14.9288 4.91358 14.9331 4.95576C14.9372 4.99791 14.9436 5.03981 14.9519 5.08133C14.9602 5.12284 14.9706 5.16391 14.9829 5.20437C14.9954 5.24485 15.0098 5.28468 15.0262 5.32371C15.0426 5.36275 15.0608 5.40094 15.0811 5.43813C15.1012 5.47531 15.1232 5.51146 15.1469 5.54644C15.1706 5.58139 15.196 5.61512 15.223 5.6475C15.2502 5.67992 15.2788 5.71096 15.309 5.74048C15.3391 5.76999 15.3706 5.79796 15.4037 5.82429C15.4366 5.85063 15.4708 5.87529 15.5061 5.89819C15.5415 5.92109 15.578 5.9422 15.6153 5.96141C15.6528 5.98064 15.6912 5.99798 15.7303 6.01334C15.7695 6.02869 15.8093 6.04205 15.8498 6.05338C15.8903 6.0647 15.9313 6.07397 15.9727 6.08114C16.0141 6.08835 16.0559 6.09347 16.0977 6.09648C16.1274 6.09861 16.1572 6.09966 16.1869 6.09968C16.2289 6.09968 16.271 6.09757 16.3128 6.09336C16.3545 6.08912 16.3961 6.08279 16.4372 6.07437C16.4785 6.06596 16.5191 6.05547 16.5594 6.04296C16.5994 6.03044 16.639 6.0159 16.6776 5.9994C16.7163 5.98289 16.7542 5.96445 16.791 5.94414C16.8279 5.92383 16.8637 5.90166 16.8985 5.87774C16.9331 5.85383 16.9666 5.82819 16.9988 5.80091C17.0308 5.7736 17.0616 5.74471 17.0909 5.71431C17.1202 5.68392 17.1479 5.65207 17.1739 5.61889C17.2001 5.58569 17.2245 5.55122 17.2472 5.51556C17.2699 5.47992 17.2909 5.44314 17.3099 5.4054C17.329 5.36763 17.3462 5.32893 17.3614 5.28945C17.3767 5.24996 17.3899 5.20974 17.4011 5.16892C17.4123 5.12811 17.4215 5.08675 17.4287 5.04501C17.4359 5.00328 17.4409 4.9612 17.4438 4.91897C17.4459 4.88904 17.4471 4.85906 17.4471 4.82906C17.4471 4.78669 17.4449 4.74436 17.4408 4.70221C17.4366 4.66006 17.4303 4.61816 17.4219 4.57664C17.4136 4.53513 17.4031 4.49406 17.3907 4.4536C17.3782 4.41312 17.3639 4.37329 17.3475 4.33426C17.3311 4.29523 17.3129 4.25704 17.2928 4.21984C17.2726 4.18266 17.2507 4.14651 17.2269 4.11153C17.2031 4.07655 17.1777 4.04281 17.1506 4.0104C17.1235 3.97799 17.0949 3.94696 17.0649 3.91743C17.0347 3.88792 17.0031 3.85995 16.9702 3.83363C16.9373 3.8073 16.9031 3.78265 16.8677 3.75978C16.8324 3.73688 16.7959 3.71578 16.7584 3.69656C16.7209 3.67733 16.6825 3.66 16.6434 3.64464C16.6043 3.62928 16.5644 3.61592 16.5239 3.60459C16.4835 3.59325 16.4424 3.58396 16.401 3.57676C16.3596 3.56958 16.318 3.56447 16.276 3.56149C16.2463 3.55936 16.2165 3.55824 16.1868 3.55824Z" fill="#080B10"/><path d="M9.67735 0.000193139C9.10184 -0.000736623 8.58825 0.00165378 8.12689 0.00816154L6.88998 0.0413647C6.52354 0.0573021 6.19979 0.0780858 5.90919 0.10498C5.7639 0.118394 5.62681 0.133402 5.49689 0.149937C5.37325 0.165548 5.24996 0.183726 5.12708 0.204458C5.01007 0.22438 4.89904 0.245895 4.79258 0.269269C4.68613 0.292645 4.58445 0.317879 4.48633 0.344973C4.39044 0.371467 4.29527 0.400609 4.20098 0.432364C4.10857 0.463575 4.01842 0.496646 3.92939 0.531973C3.75135 0.60263 3.57768 0.681917 3.39883 0.770769C3.26122 0.839168 3.13408 0.908429 3.01331 0.981741C2.89254 1.05505 2.77812 1.13248 2.6661 1.21682C2.55073 1.3041 2.43953 1.39677 2.33288 1.49454C2.22138 1.59627 2.10751 1.70816 1.98918 1.8332C1.8405 1.98946 1.7113 2.13515 1.59663 2.27812C1.53929 2.34958 1.4856 2.42024 1.43502 2.49129C1.385 2.56131 1.33719 2.6329 1.29164 2.70591C1.24657 2.7783 1.20388 2.85201 1.16304 2.92785C1.12158 3.00499 1.08238 3.08334 1.04552 3.16278C0.970083 3.32509 0.899687 3.49987 0.829422 3.69498C0.777296 3.8392 0.730618 3.98536 0.68949 4.13311C0.647531 4.28413 0.610212 4.44211 0.576935 4.61296C0.543659 4.78383 0.514625 4.96758 0.489105 5.17078C0.461604 5.39352 0.439634 5.61692 0.423216 5.84076C0.404656 6.08685 0.389277 6.35766 0.376682 6.65907L0.346853 7.66128L0.330812 8.88296L0.326172 10.3596L0.339761 12.507L0.382184 14.134L0.414864 14.7694L0.455697 15.2961C0.468786 15.4381 0.485163 15.5796 0.504816 15.7208C0.522712 15.8461 0.541936 15.9558 0.562618 16.0508C0.604582 16.2439 0.654204 16.4352 0.711365 16.6243C0.766097 16.8054 0.828687 16.9839 0.898957 17.1595C0.968028 17.3315 1.04359 17.4974 1.12579 17.657C1.20799 17.8167 1.29681 17.9701 1.39227 18.1175C1.48772 18.2648 1.5898 18.4061 1.69878 18.5414C1.80763 18.6767 1.92341 18.8062 2.04566 18.9295C2.16809 19.053 2.29722 19.1705 2.43331 19.2822C2.57099 19.3952 2.71414 19.5014 2.86218 19.6003C2.99959 19.6923 3.13555 19.7767 3.2725 19.854C3.40944 19.9314 3.54758 20.0015 3.68957 20.0654C3.83155 20.1292 3.97713 20.1866 4.12919 20.2383C4.28125 20.29 4.43968 20.3359 4.60712 20.3766C4.77456 20.4175 4.9518 20.4532 5.1394 20.4844C5.32699 20.5157 5.52751 20.5425 5.74175 20.5655C5.95599 20.5885 6.18455 20.6075 6.43014 20.6235C6.67574 20.6395 6.93823 20.6522 7.22028 20.6624C7.65599 20.6782 8.31554 20.6874 9.07612 20.691L11.5383 20.686L13.8699 20.6533L14.7565 20.6283L15.334 20.5986C15.458 20.5884 15.5792 20.5764 15.6964 20.5625C15.8135 20.5485 15.9288 20.5325 16.0414 20.5142C16.1537 20.4961 16.2636 20.4758 16.3716 20.4532C16.4783 20.4309 16.5845 20.406 16.69 20.3786C16.7944 20.352 16.8975 20.3218 16.9995 20.2897C17.1014 20.2577 17.2024 20.223 17.3027 20.1858C17.4035 20.1483 17.5034 20.1085 17.6024 20.0663C17.702 20.0237 17.8014 19.9783 17.9013 19.9301C18.0546 19.8561 18.178 19.7944 18.2864 19.7342C18.3884 19.6782 18.4865 19.6156 18.5804 19.5466C18.6729 19.4784 18.7648 19.4007 18.8709 19.3028C18.9769 19.2049 19.0972 19.087 19.2459 18.9379C19.3768 18.8069 19.487 18.693 19.5822 18.5895C19.6773 18.486 19.7575 18.3929 19.8277 18.3031C19.8947 18.2178 19.957 18.1292 20.0147 18.0373C20.0708 17.9476 20.1226 17.8545 20.1752 17.7513C20.2545 17.596 20.325 17.452 20.3881 17.3131C20.4495 17.1794 20.5055 17.0431 20.5561 16.9049C20.6059 16.7677 20.6492 16.6282 20.6856 16.4869C20.7229 16.3415 20.7551 16.1879 20.783 16.0195C20.8107 15.851 20.8343 15.6678 20.8547 15.4631C20.8751 15.2585 20.8925 15.0323 20.9077 14.7782L20.9482 13.925L20.9828 12.8641L21.0077 11.682L21.0172 10.4461L20.9951 8.01861L20.9655 6.93134L20.9251 5.9978L20.8746 5.26999C20.8564 5.06745 20.8366 4.90794 20.8157 4.8001C20.7925 4.68093 20.7666 4.56234 20.738 4.44436C20.7101 4.32957 20.6795 4.21548 20.6462 4.10218C20.6137 3.99178 20.5784 3.88224 20.5403 3.77366C20.5026 3.66642 20.4627 3.56142 20.4209 3.4587C20.3792 3.35596 20.3339 3.25563 20.287 3.15741C20.2398 3.0592 20.1905 2.96337 20.1388 2.86973C20.0869 2.77611 20.0331 2.6848 19.9766 2.59574C19.9203 2.5067 19.8615 2.41989 19.8003 2.33543C19.7395 2.25123 19.676 2.16896 19.61 2.08873C19.5444 2.00895 19.4763 1.93126 19.4057 1.85578C19.3353 1.7804 19.2624 1.70728 19.1874 1.63651C19.1123 1.56572 19.035 1.49719 18.9552 1.43091C18.8751 1.36442 18.793 1.30044 18.7088 1.23907C18.6239 1.17706 18.5371 1.11767 18.4484 1.06097C18.3586 1.00345 18.2673 0.948623 18.1741 0.896543C18.0796 0.843591 17.9833 0.793366 17.8859 0.745934C17.724 0.667109 17.5742 0.597185 17.4274 0.535162C17.2828 0.473607 17.1356 0.418936 16.986 0.371337C16.8355 0.323856 16.6789 0.28315 16.5066 0.248021C16.3342 0.212892 16.1462 0.183607 15.9336 0.158704C15.7209 0.133802 15.4834 0.113681 15.2117 0.096947C14.9401 0.0802126 14.6345 0.0670632 14.2857 0.0564382L13.1001 0.0298762L11.5995 0.0121457L9.67801 0.000324851L9.67735 0.000193139ZM10.6753 1.8265L13.4463 1.8423L14.4916 1.86248C14.7795 1.87059 14.9992 1.88009 15.1279 1.89104C15.2957 1.90519 15.4554 1.92291 15.6083 1.94417C15.7548 1.96446 15.9008 1.98968 16.0457 2.0198C16.1849 2.04903 16.3177 2.08222 16.4448 2.11968C16.5719 2.15713 16.6933 2.19911 16.8097 2.24552C16.9262 2.29194 17.0376 2.343 17.1447 2.39892C17.2511 2.45441 17.3544 2.51548 17.4543 2.58187C17.5537 2.64794 17.6495 2.71913 17.7426 2.79583C17.8356 2.87253 17.9258 2.95474 18.0139 3.04266C18.107 3.13543 18.1928 3.22992 18.2718 3.3274C18.3506 3.42429 18.4236 3.52584 18.4901 3.63148C18.5575 3.73863 18.6181 3.84986 18.6719 3.9645C18.7268 4.08139 18.7761 4.2049 18.8203 4.33618C18.8647 4.46747 18.9041 4.60699 18.939 4.75608C18.9756 4.91413 19.0062 5.07351 19.031 5.23387C19.0574 5.40387 19.0801 5.58516 19.0994 5.77926C19.1185 5.97336 19.1344 6.18036 19.1475 6.40182C19.158 6.57946 19.1672 6.81388 19.1749 7.09072L19.1943 8.03469L19.2091 10.3469L19.1923 12.657L19.1721 13.5983L19.144 14.2828C19.1248 14.6034 19.1044 14.8729 19.08 15.1074C19.0677 15.2247 19.0544 15.3333 19.0397 15.435C19.0259 15.5312 19.0096 15.6269 18.9907 15.7222C18.9735 15.8092 18.9535 15.8955 18.9307 15.9813C18.909 16.0629 18.8844 16.144 18.8572 16.2242C18.8298 16.3046 18.8001 16.3842 18.7679 16.4628C18.7338 16.546 18.6979 16.6282 18.6601 16.7097C18.6265 16.7824 18.5911 16.8532 18.5538 16.922C18.5168 16.9902 18.4775 17.057 18.4361 17.1225C18.395 17.1875 18.3519 17.2505 18.3068 17.3115C18.2619 17.3723 18.2149 17.4314 18.1658 17.4889C18.117 17.5462 18.0659 17.6015 18.0129 17.655C17.9599 17.7084 17.9049 17.7599 17.8478 17.8097C17.7909 17.8596 17.7317 17.9075 17.6705 17.9536C17.6094 17.9996 17.5461 18.0438 17.4807 18.0861C17.4152 18.1286 17.3478 18.1692 17.2781 18.2081C17.2084 18.2468 17.1366 18.2838 17.0627 18.319C16.9874 18.3549 16.9113 18.3884 16.8339 18.4197C16.7542 18.4519 16.6736 18.4818 16.5921 18.5096C16.4263 18.5662 16.2516 18.6159 16.0675 18.6586C15.8758 18.7031 15.6823 18.7394 15.4874 18.7674C15.4124 18.7784 15.2403 18.7887 14.9937 18.7982L14.0541 18.8244L11.39 18.8591L8.60157 18.8634L7.50651 18.8518L6.79544 18.8296L6.27112 18.7926C6.10832 18.7789 5.95691 18.7637 5.81506 18.7463C5.67321 18.729 5.5411 18.7097 5.41681 18.6878C5.29903 18.6675 5.18197 18.6431 5.06582 18.6148C4.95992 18.5891 4.8551 18.559 4.75163 18.5247C4.65187 18.4915 4.55647 18.4549 4.46367 18.4148C4.37087 18.3746 4.28071 18.3306 4.19143 18.2825C4.10214 18.2344 4.01378 18.1823 3.92442 18.1253C3.85702 18.0824 3.79185 18.0389 3.72915 17.993C3.66644 17.9469 3.60585 17.901 3.54752 17.8529C3.48918 17.8049 3.43317 17.7553 3.37915 17.7044C3.32548 17.6536 3.27366 17.6009 3.22377 17.5465C3.17406 17.4921 3.12653 17.4362 3.08092 17.3783C3.03514 17.3202 2.99151 17.2603 2.95015 17.199C2.90815 17.1366 2.86842 17.0729 2.83103 17.0078C2.79324 16.942 2.75731 16.8741 2.72317 16.8038C2.68846 16.7324 2.65607 16.6599 2.62607 16.5863C2.59558 16.5113 2.56667 16.434 2.5395 16.3543C2.48514 16.1945 2.43742 16.0245 2.39592 15.8433C2.35442 15.662 2.31902 15.4694 2.28906 15.2642C2.2591 15.059 2.23497 14.8414 2.21575 14.6102C2.20157 14.4399 2.1903 14.1746 2.18168 13.8399L2.16365 12.6496L2.17027 9.61515L2.22244 6.71559L2.26222 5.694L2.28475 5.35631C2.29258 5.26614 2.30067 5.19934 2.30894 5.15922C2.33626 5.02728 2.36376 4.90449 2.3922 4.78954C2.41877 4.68109 2.44832 4.57342 2.48083 4.46661C2.51172 4.3658 2.54427 4.27137 2.57907 4.18192C2.61262 4.09527 2.65002 4.01016 2.69116 3.92686C2.73132 3.84585 2.77449 3.76827 2.82134 3.69277C2.86821 3.61727 2.91879 3.54403 2.97394 3.47118C3.02909 3.39833 3.08848 3.32641 3.15311 3.2535C3.21774 3.18059 3.28754 3.10695 3.36324 3.03104C3.45147 2.94215 3.54333 2.85697 3.63859 2.77571C3.72856 2.69904 3.82236 2.62702 3.91965 2.55996C4.0153 2.49354 4.11342 2.43445 4.21557 2.38012C4.31771 2.32581 4.4239 2.27672 4.53559 2.23257C4.64728 2.18841 4.76462 2.1489 4.8889 2.11304C5.01948 2.07635 5.1515 2.04504 5.28463 2.0192C5.42463 1.99172 5.57332 1.96774 5.73207 1.94682C5.89083 1.92591 6.05972 1.90784 6.2403 1.89217C6.36624 1.88128 6.58326 1.87158 6.86903 1.86342L7.90907 1.84283L10.6758 1.82589L10.6753 1.8265Z" fill="#080B10"/></svg>