<svg width="18" height="18" viewBox="0 0 18 18" fill="none" xmlns="http://www.w3.org/2000/svg"><path d="M17.9982 17.6482H14.3441V11.9158C14.3441 10.5489 14.3198 8.78922 12.4437 8.78922C10.5406 8.78922 10.2494 10.2786 10.2494 11.8163V17.6479H6.59536V5.85973H10.1032V7.4707H10.1523C10.5034 6.86942 11.0107 6.37476 11.6201 6.03945C12.2296 5.70412 12.9185 5.54068 13.6134 5.56652C17.3169 5.56652 17.9998 8.0068 17.9998 11.1815L17.9982 17.6482ZM2.47242 4.24838C2.05303 4.24846 1.64302 4.12396 1.29427 3.8906C0.945508 3.65725 0.673686 3.32556 0.513118 2.93743C0.352567 2.54931 0.310486 2.12222 0.39223 1.71016C0.473973 1.29809 0.675862 0.919556 0.972375 0.622436C1.26887 0.325299 1.64666 0.122935 2.05799 0.0408933C2.46931 -0.0411488 2.89565 0.000849406 3.28315 0.161543C3.67064 0.322255 4.00186 0.594449 4.23492 0.943738C4.46799 1.29301 4.59244 1.70369 4.59251 2.12381C4.59256 2.40277 4.53776 2.67899 4.43123 2.93672C4.32471 3.19447 4.16858 3.42867 3.97172 3.62594C3.77485 3.82324 3.54111 3.97975 3.28384 4.08654C3.02659 4.19334 2.75089 4.24833 2.47242 4.24838ZM4.29941 17.6482H0.641604V5.85973H4.29941V17.6482Z" fill="#080B10"/></svg>